<svg xmlns="http://www.w3.org/2000/svg" width="88" height="80" viewBox="0 0 65.809 60"><path d="M10.34 42.803c0 .498.031 1.204.322 1.508.293.319.753.388 1.214.388 1.367 0 2.411-.553 2.411-1.937 0-1.093-.614-2.365-3.055-2.365-.83 0-.891.084-.891.359zm0-3.21c0 .388.016.415.799.388 1.566-.055 2.411-.47 2.411-1.771 0-1.355-1.121-1.867-2.288-1.867-.338 0-.568.027-.706.083-.154.041-.216.111-.216.359zm-1.259-1.839c0-1.024-.073-1.296-.764-1.35l-.481-.034c-.078-.062-.056-.34.016-.346.828-.073 1.873-.11 3.301-.11.967 0 1.889.069 2.58.388.66.29 1.167.843 1.167 1.729 0 .996-.645 1.508-1.566 1.895 0 .138.123.18.292.207.829.139 2.058.83 2.058 2.31 0 1.606-1.321 2.684-4.085 2.684-.445 0-1.198-.042-1.843-.042l-1.765.042c-.092-.042-.123-.263-.031-.346l.277-.041c.814-.125.845-.277.845-1.729v-5.257m17.275 1.362c0-1.253-.026-1.454-.8-1.513l-.328-.024c-.078-.047-.052-.26.026-.295l1.653.036 1.627-.036c.078.036.105.248.026.295l-.328.024c-.774.059-.8.26-.8 1.513v4.207c0 1.252.026 1.418.8 1.5l.328.035c.078.048.052.26-.026.296l-1.627-.036-1.653.036c-.078-.036-.105-.225-.026-.296l.328-.035c.774-.083.8-.248.8-1.5v-4.207m7.277 4.23c0 1.241.025 1.418.737 1.477l.393.035c.073.048.049.26-.025.296l-1.61-.036-1.708.036c-.074-.036-.099-.237 0-.296l.442-.035c.7-.06.762-.237.762-1.477v-5.282c0-.366 0-.378-.369-.378h-.676c-.528 0-1.204.023-1.511.295-.295.26-.417.52-.552.815-.099.071-.271.012-.32-.083.197-.531.381-1.288.467-1.76.037-.024.197-.036.234 0 .074.377.479.366 1.045.366h4.976c.663 0 .774-.023.959-.33.061-.024.197-.012.221.035-.135.485-.221 1.441-.184 1.796-.049.094-.258.094-.319.023-.036-.295-.123-.732-.307-.862-.283-.201-.749-.295-1.426-.295h-.872c-.369 0-.356.012-.356.402v5.258m5.267-4.23c0-1.253-.026-1.454-.8-1.513l-.327-.024c-.079-.047-.053-.26.026-.295l1.653.036 1.626-.036c.079.036.105.248.027.295l-.329.024c-.774.059-.8.26-.8 1.513v4.207c0 1.252.026 1.418.8 1.5l.329.035c.078.048.052.26-.027.296l-1.626-.036-1.653.036c-.079-.036-.105-.225-.026-.296l.327-.035c.774-.083.8-.248.8-1.5v-4.207m5.878 6.159c-1.171 0-1.91-.307-2.175-.437-.168-.26-.349-1.099-.377-1.654.07-.083.279-.106.335-.036.209.602.78 1.76 2.398 1.76 1.172 0 1.743-.65 1.743-1.359 0-.519-.126-1.098-1.143-1.654l-1.325-.732c-.698-.39-1.506-1.063-1.506-2.032 0-1.123 1.032-2.033 2.845-2.033.433 0 .934.072 1.296.155.181.047.377.071.488.071.126.284.251.945.251 1.441-.056.071-.279.107-.349.036-.181-.567-.557-1.335-1.896-1.335-1.366 0-1.659.768-1.659 1.311 0 .686.669 1.182 1.185 1.454l1.116.591c.878.461 1.743 1.146 1.743 2.268 0 1.3-1.157 2.186-2.97 2.186m7.018-3.973c-.61 0-.636.024-.636.378v1.666c0 1.241.064 1.406.776 1.477l.369.035c.076.048.051.26-.025.296l-1.615-.036-1.475.036c-.076-.036-.102-.225-.025-.296l.216-.035c.712-.118.737-.237.737-1.477v-4.254c0-1.241-.089-1.442-.751-1.489l-.33-.024c-.076-.047-.051-.26.025-.295l1.602.036 1.475-.036c.076.036.102.248.025.295l-.242.024c-.737.071-.763.248-.763 1.489v1.359c0 .367.025.378.636.378h3.636c.61 0 .636-.012.636-.378v-1.359c0-1.241-.025-1.418-.775-1.489l-.242-.024c-.077-.047-.051-.26.025-.295l1.538.036 1.5-.036c.077.036.102.248.025.295l-.267.024c-.737.071-.762.248-.762 1.489v4.254c0 1.241.025 1.394.762 1.477l.306.035c.076.048.051.26-.025.296l-1.539-.036-1.538.036c-.076-.036-.102-.225-.025-.296l.242-.035c.775-.118.775-.237.775-1.477V41.68c0-.354-.025-.378-.636-.378h-3.636M1.804 47.751c1.045-.814 2.376-1.213 3.865-1.213a11.08 11.08 0 0 1 2.535.342c.171.043.272.071.401.057.015.328.086 1.227.2 2.098-.072.099-.286.114-.387.028-.214-.97-.859-2.083-2.935-2.083-2.191 0-4.052 1.384-4.052 4.337 0 2.996 1.904 4.651 4.252 4.651 1.847 0 2.663-1.198 2.992-2.04.101-.071.316-.043.372.058-.099.742-.472 1.683-.687 1.955-.171.028-.343.085-.501.142-.315.115-1.346.329-2.262.329-1.288 0-2.52-.258-3.565-.957A4.59 4.59 0 0 1 0 51.532c0-1.585.716-2.94 1.804-3.781m15.312 4.862c0-1.95-.906-4.053-3.276-4.053-1.291 0-2.965.839-2.965 3.427 0 1.749.893 4.018 3.337 4.018 1.489 0 2.903-1.064 2.903-3.392zm-7.482-.248c0-2.363 1.861-4.171 4.417-4.171 2.866 0 4.306 1.973 4.306 4.052 0 2.387-1.91 4.124-4.306 4.124-2.754 0-4.417-1.879-4.417-4.006m22.72-1.016c0-.732-.025-2.091-.238-2.445-.087-.142-.313-.225-.626-.249l-.313-.023c-.075-.083-.051-.236.025-.284l1.428.036 1.315-.036c.1.06.088.213.025.284l-.301.023c-.313.024-.551.131-.626.285-.176.389-.176 1.749-.176 2.41v1.336c0 1.028-.176 2.115-.877 2.824-.539.555-1.465.862-2.392.862-.864 0-1.728-.154-2.342-.65-.663-.52-.977-1.383-.977-2.789v-2.789c0-1.229-.025-1.43-.751-1.49l-.314-.023c-.075-.047-.05-.248.025-.284l1.553.036 1.54-.036c.075.036.1.237.025.284l-.301.023c-.726.06-.751.261-.751 1.49v2.552c0 1.903.626 3.155 2.543 3.155 1.816 0 2.505-1.347 2.505-3.143v-1.36m15.694 2.88c0 .43.028 1.039.29 1.301.263.275.679.335 1.094.335 1.232 0 2.173-.478 2.173-1.671 0-.943-.554-2.04-2.755-2.04-.748 0-.803.071-.803.31zm0-2.769c0 .335.014.359.719.335 1.412-.048 2.174-.406 2.174-1.528 0-1.169-1.011-1.611-2.063-1.611-.305 0-.512.025-.637.072-.138.036-.193.096-.193.311zm-1.136-1.587c0-.883-.055-1.11-.678-1.158l-.443-.043c-.05-.046-.077-.285.014-.292.748-.056 1.69-.095 2.977-.095.872 0 1.702.06 2.326.334.595.251 1.052.728 1.052 1.492 0 .859-.581 1.301-1.412 1.635 0 .12.11.155.263.179.748.119 1.855.716 1.855 1.993 0 1.384-1.19 2.315-3.683 2.315-.401 0-1.079-.036-1.661-.036l-1.592.036c-.083-.036-.111-.227-.028-.298l.249-.036c.734-.108.761-.24.761-1.492v-4.535" fill="#21336b"/><path d="M7.9 60h50.291v-.594H7.9zm0 0" fill="#f39e0c"/><path d="M19.572 40.976c-.238 0-.714.089-.714-.227v-2.267c0-.886.028-1.013 1.092-1.013 1.246 0 2.016.632 2.016 1.797 0 .507-.182.976-.645 1.292-.532.367-1.106.417-1.75.417zm4.78 3.883l-.328-.029-.181-.024c-.48-.085-.671-.513-.898-.909l-1.134-1.975c-.196-.33-.406-.773-.854-.835 1.162-.139 2.212-.811 2.212-1.963 0-1.33-1.316-1.925-2.646-1.925l-2.338.022c-.449 0-.981-.022-1.429-.022-.249 0-.252.051-.252.19 0 .205.087.148.35.163.946.054.91.23.91 1.04v5.178c0 .742.064.963-.714 1.033l-.187.019-.33.034c-.079.071-.052.26.026.295l.486-.019 1.292-.046c.433 0 .848.033 1.274.046l.486.017c.079-.036.105-.224.026-.295l-.515-.049c-.786-.053-.738-.275-.738-1.035v-1.95c0-.114-.014-.418.07-.506.07-.077.197-.064.308-.064 1.065 0 1.05.102 1.555.988l1.372 2.469c.112.189.196.43.476.43h1.193l.483.017c.078-.036.105-.225.026-.295m-4.523 5.325c0-1.241-.026-1.43-.845-1.489l-.325-.024c-.078-.047-.052-.259.026-.296l1.69.036 1.599-.036c.078.036.104.248.026.296l-.312.024c-.767.059-.793.248-.793 1.489v4.113c0 .744.038 1.051.272 1.275.143.13.391.272 1.417.272 1.105 0 1.378-.047 1.586-.153.261-.142.598-.568.858-1.17.078-.06.325-.012.325.07a8.85 8.85 0 0 1-.546 1.654l-3.237-.035h-1.196l-1.69.035c-.078-.035-.104-.224-.026-.295l.391-.036c.753-.071.78-.237.78-1.477v-4.254m34.82.023c0-1.252-.025-1.453-.779-1.512l-.319-.024c-.076-.047-.051-.259.026-.296l1.608.036 1.582-.036c.076.036.102.248.025.296l-.319.024c-.753.059-.778.26-.778 1.512v4.208c0 1.252.025 1.418.778 1.5l.319.036c.076.047.051.26-.025.295l-1.582-.035-1.608.035c-.077-.035-.102-.224-.026-.295l.319-.036c.753-.083.779-.248.779-1.5v-4.208m-10.197 5.705l-.188-.017c-.135-.014-.255-.033-.351-.137-.165-.176-.152-.677-.152-.877v-5.178c0-.226-.055-.714.11-.89.083-.093.255-.108.409-.118l.177-.012.328-.023c.078-.047.052-.26-.027-.295l-.486.009H42.878c-.152 0-.29 0-.372.163l-2.841 5.917-2.51-5.716c-.083-.201-.097-.364-.359-.364h-1.451l-.494-.009c-.078.036-.105.248-.026.295l.518.037c.544.035.578.157.528.73l-.428 5.554c-.037.557-.068.852-.652.906l-.192.023-.327.036c-.079.071-.053.26.026.295l.48-.016.899-.041c.326 0 .652.031.977.044l.486.017c.078-.036.105-.225.026-.295l-.328-.036-.183-.017c-.843-.057-.824-.653-.772-1.381l.4-5.165h.097l2.717 6.356c.028.087.069.238.207.238.124 0 .165-.138.207-.226l3.062-6.52h.097v5.68c0 .225.028.689-.207.865-.123.091-.521.146-.521.146l-.177.023-.328.036c-.079.07-.053.26.026.295l1.828-.061.961.031.499.027c.079-.036.105-.225.027-.295l-.328-.036m17.867-2.893h-1.535c-.053 0-.48.05-.48-.075 0-.038.026-.112.04-.15l.92-2.281c.027-.062.12-.375.227-.375.08 0 .187.326.213.375l.907 2.13c0 .025.093.225.093.276 0 .138-.306.1-.386.1zm3.444 2.924l-.044-.036-.179-.023c-.512-.115-.711-.73-.899-1.169l-2.63-6.223c-.026-.075-.078-.236-.182-.236-.144 0-.182.174-.221.272l-2.512 6.212c-.091.235-.326.806-.495.979-.13.133-.299.158-.478.177l-.21.022-.309.031c-.078.07-.052.26.027.295l.486-.017 1.031-.048c.29 0 .579.031.868.044l.486.017c.079-.035.105-.224.027-.295l-.328-.036-.179-.017c-.302-.034-.678-.087-.678-.42 0-.223.104-.483.181-.682l.39-.929c.196-.446.118-.496.638-.496h1.77c.625 0 .534 0 .808.633l.416.942c.065.161.182.434.182.607 0 .311-.34.332-.658.359l-.197.015-.316.023c-.078.071-.052.26.026.295l.486-.019 1.1-.042 1.368.044c.15.004.023.01.196.016.078-.036.105-.224.026-.295" fill="#21336b"/><path d="M14.513 29.009c8.306 0 19.797 4.677 28.134 4.677 5.949 0 11.755-1.587 15.059-3.925a25.44 25.44 0 0 0 .353-4.221C58.059 11.579 46.741.261 32.781.261S7.504 11.579 7.504 25.54a25.43 25.43 0 0 0 .345 4.173c.911-.168 4.009-.703 6.665-.703" fill="#fff"/><path d="M49.111 19.695l.999.414 2.217-1.546-3.216 1.132m-37.243-1.727l-2.628-.924.132-.322 2.959.987.013-.007.391-.221.155-.098-3.226-1.373.136-.338 7.201 2.913.237-.099-7.142-3.48.159-.327 7.568 3.522.105-.053-7.338-4.162.151-.313 10.597 5.766c.087-.16.269-.452.362-.61-4.029-3.788-7.917-6.632-7.917-6.632s3.998 2.678 8.933 5.166l.47-.56-9.04-7.959.243-.249 7.296 6.218-6.76-6.769.253-.262 7.589 7.335-7.065-7.841.27-.243 6.53 6.992-5.96-7.51.257-.233 7.639 9.296.568-.457c-2.31-5-4.834-9.069-4.834-9.069s2.686 3.954 6.31 8.095l.675-.356-.038-.025-5.354-10.684.319-.14 4.436 8.5-3.732-8.81.332-.147 4.289 9.643-3.613-9.917.342-.124 3.435 8.928-2.713-9.195.326-.12 3.571 11.405-.007.03.009-.004.721-.216C29.211 7.438 28.4 2.752 28.4 2.752s1.004 4.645 2.802 9.824l.757-.074-.008-.012h.031l-.017-.026L31.004.552l.348-.011.928 9.542-.16-9.565.364-.012.364 10.548.364-10.549.364.013-.16 9.565.928-9.542.348.011-.962 11.912-.018.026h.006l-.003.004h.016l.74.07c1.796-5.174 2.798-9.811 2.798-9.811s-.808 4.672-1.081 10.139l.727.215 3.559-11.365.326.12-2.713 9.195 3.435-8.929.341.125-3.613 9.916 4.289-9.643.333.148-3.732 8.809 4.436-8.499.318.14-5.334 10.647.009.004.648.339c3.608-4.127 6.279-8.058 6.279-8.058s-2.506 4.04-4.81 9.016l.603.483 7.549-9.195.257.233-5.96 7.51 6.53-6.992.27.244-7.065 7.841 7.589-7.335.253.262-6.76 6.77 7.297-6.218.242.248-8.925 7.875.454.536c4.903-2.48 8.865-5.133 8.865-5.133s-3.85 2.816-7.858 6.577l.388.685 10.447-5.688.151.313-8.339 4.729 8.674-4.036.159.327-8.079 3.937.155.054 8.22-3.325.137.338-7.642 3.25.143.059 5.092-1.697.767-.536.255.194 1.676-.559.131.322-1.45.51 2.095 1.598.671.374C54.988 8.368 44.863 0 32.781 0 20.488 0 10.219 8.665 7.747 20.221l.094-.046.306-.139.189-.088 3.532-1.98" fill="#f39e0c"/><path d="M7.602 30.259s3.777-.754 6.93-.754c8.307 0 19.797 4.677 28.134 4.677 6.116 0 12.081-1.677 15.332-4.123a25.75 25.75 0 0 0 .387-4.455c0-2.058-.244-4.06-.703-5.978l-3.475-1.938-4.078 2.86-2.743-1.068c-.929.47-6.659 4.301-6.659 4.301l-2.199-1.592-2.359-.468-3.147-2.291-3.609 2.478-4.165 2.338c-.139 0-4.857-3.742-4.857-3.742l-2.175-2.29c-.37.234-1.849.912-1.849.912l-.076.02-1.431-.442-1.738-.922-5.373 2.439a25.68 25.68 0 0 0-.568 5.382 25.76 25.76 0 0 0 .423 4.656" fill="#21336b"/></svg>