<svg xmlns="http://www.w3.org/2000/svg" width="204" height="80" viewBox="0 0 203.401 80"><path d="M185.636 49.251c4.405 0 6.84 2.87 6.84 8.078v21.793H203.4V53.818c0-9.06-4.943-14.475-13.228-14.475-5.769 0-9.007 3.165-11.412 6.264l-.177.221v-5.754H167.65v39.048h10.933V57.33c0-5.134 2.574-8.078 7.053-8.078m-43.091-9.909c-5.835 0-11.22 2.118-15.168 5.961-3.895 3.785-6.034 8.89-6.034 14.371v.14c0 5.475 2.124 10.55 5.99 14.298 3.91 3.8 9.259 5.887 15.065 5.887 5.835 0 11.228-2.117 15.175-5.953 3.888-3.792 6.035-8.898 6.035-14.372v-.147c0-5.474-2.125-10.55-5.99-14.297-3.91-3.8-9.26-5.888-15.073-5.888m10.277 20.473c0 2.928-.966 5.621-2.722 7.584-1.889 2.095-4.493 3.209-7.555 3.209-2.929 0-5.607-1.166-7.54-3.283-1.851-2.036-2.877-4.751-2.877-7.65v-.148c0-2.929.967-5.622 2.723-7.577 1.88-2.102 4.493-3.209 7.547-3.209 2.936 0 5.614 1.166 7.54 3.276 1.858 2.036 2.884 4.758 2.884 7.657v.14m-41.114 19.307h12.505l-15.39-23.71.052-.052 14.777-15.286h-13.05l-13.177 14.43V26.986H86.492v52.136h10.933V67.245l.03-.022 3.962-4.19 10.29 16.09m-53.352.73c5.769 0 9.008-3.165 11.413-6.256l.177-.222v5.747h10.933V40.074H69.945v21.793c0 5.134-2.568 8.078-7.053 8.078-4.404 0-6.831-2.87-6.831-8.078V40.074H45.127v25.312c0 9.059 4.943 14.467 13.228 14.467M37.728 28.07L25.23 48.175l-.082-.133-12.202-19.97H0L19.616 58.43v20.693h11.081V58.207l.015-.022 19.594-30.114H37.728M142.457 0l-3.91 12.549-8.477-10.04 1.188 13.087-11.671-6.028 6.116 11.627-13.095-1.1 10.092 8.411-12.52 3.991 10.757 3.342 9.244-9.87 3.784 4.035 8.595-9.185 8.595 9.185 3.784-4.036 9.148 9.775 10.867-3.467-12.542-3.91 10.034-8.477-13.088 1.196 6.035-11.679-11.634 6.109 1.1-13.095-8.411 10.1L142.457 0"/></svg>