<svg xmlns="http://www.w3.org/2000/svg" viewBox="0 0 203.395 80" height="80" width="204"><defs><clipPath id="A"><path d="M0 0h1490v534.738H0z"/></clipPath></defs><g clip-path="url(#A)" transform="matrix(.188855 0 0 -.188855 -39.043468 90.055046)"><path d="M1189.65 216.043c23.33 0 36.19-15.184 36.19-42.762V57.891h57.89v133.992c0 47.98-26.2 76.629-70.04 76.629-30.56 0-47.71-16.754-60.46-33.141l-.92-1.187v30.449h-57.89V57.891h57.89v115.39c0 27.176 13.61 42.762 37.34 42.762M961.5 268.512c-30.898 0-59.426-11.207-80.312-31.544-20.625-20.073-31.973-47.097-31.973-76.098v-.773c0-28.957 11.269-55.836 31.726-75.699 20.688-20.094 49.028-31.156 79.778-31.156 30.898 0 59.421 11.195 80.321 31.535 20.62 20.075 31.96 47.098 31.96 76.094v.777c0 28.961-11.26 55.84-31.72 75.705-20.69 20.092-49.026 31.16-79.78 31.16m54.39-108.414c0-15.5-5.12-29.754-14.42-40.125-9.97-11.114-23.79-16.984-39.97-16.984-15.527 0-29.707 6.164-39.922 17.367-9.836 10.782-15.254 25.172-15.254 40.515v.777c0 15.5 5.125 29.751 14.434 40.122 9.961 11.117 23.777 16.988 39.961 16.988 15.527 0 29.707-6.164 39.921-17.367 9.83-10.783 15.25-25.173 15.25-40.521v-.773M798.199 57.89h66.211l-81.492 125.528.281.297 78.231 80.917h-69.102l-69.742-76.403v145.708h-57.887V57.89h57.887v62.876l.141.144 21 22.188 54.472-85.208m-282.496-3.874c30.559 0 47.707 16.75 60.449 33.136l.922 1.184V57.894h57.895v206.735h-57.895V149.242c0-27.179-13.609-42.77-37.344-42.77-23.324 0-36.175 15.191-36.175 42.77v115.386h-57.891V130.637c0-47.977 26.184-76.621 70.039-76.621M406.5 328.207l-66.191-106.465-.434.738-64.586 105.727h-68.551l103.856-160.755V57.89h58.664v110.727l.078.125 103.769 159.464H406.5" fill="#231f20"/><path d="M961.012 476.848l-20.684-66.453-44.894 53.152 6.3-69.285-61.804 31.929 32.363-61.597-69.34 5.832 53.457-44.547-66.277-21.113 56.933-17.715 48.954 52.304 20.023-21.39 45.516 48.629 45.521-48.629 20.02 21.39 48.45-51.777 57.54 18.363-66.42 20.688 53.14 44.898-69.31-6.328 31.95 61.821-61.6-32.348 5.84 69.344-44.538-53.465-21.14 66.297" fill="#f9ae0c"/></g></svg>