<svg xmlns="http://www.w3.org/2000/svg" width="392" height="148" viewBox="0 0 391.115 147.487"><path d="M236.81 97.781l2.656 5.274h.077c1.039-1.81 2.002-3.812 2.965-5.774l3.618-7.354c1.732-3.503 2.849-5.62 2.927-7.392a28.96 28.96 0 0 0 2.887.116l3.426-.116c.231.154.231.809.039.963l-.809.077c-2.426.23-2.733.962-2.695 3.657l.424 16.746c.116 1.925.077 2.965 1.887 3.118l1.232.116c.23.23.191.809-.078.962l-4.542-.115-4.658.115c-.271-.192-.309-.731-.077-.962l1.116-.116c1.887-.192 1.887-.808 1.887-3.271l-.116-16.054h-.076c-.271.423-1.732 3.503-2.503 5.005l-3.426 6.736-4.158 8.778c-.077.115-.23.153-.385.153-.077 0-.27-.038-.347-.153-.654-2.041-2.502-5.813-3.388-7.7l-3.465-7.43-2.464-5.544h-.077l-.385 6.853-.27 9.047c0 2.849.23 3.465 1.732 3.58l1.463.116c.27.23.23.847-.038.962l-4.273-.115-3.927.115c-.231-.192-.308-.77-.077-.962l.847-.116c1.617-.23 2.156-.462 2.387-3.156l.654-8.47.424-8.585c.077-2.426-.231-3.003-2.579-3.311l-.616-.077c-.192-.231-.154-.809.154-.963l3.041.116c.886 0 1.925 0 3.195-.116-.153 1.502.809 3.889 2.002 6.353zm23.06-.77c0-1.502 0-1.694-1.039-2.387l-.347-.231c-.154-.153-.154-.577.039-.692.885-.309 3.079-1.31 3.965-1.887.192 0 .347.077.385.23l-.153 4.774v6.93c0 2.771.076 3.156 1.463 3.349l.808.116c.27.192.193.847-.076.962l-3.619-.115-3.619.115c-.27-.115-.347-.77-.077-.962l.809-.116c1.425-.192 1.463-.577 1.463-3.349v-6.737zm3.195-10.972c0 1.386-.962 2.002-2.04 2.002a1.89 1.89 0 0 1-1.964-1.925c0-1.271.925-2.079 2.079-2.079s1.925.924 1.925 2.002zm6.315 10.972c0-1.502 0-1.694-1.039-2.387l-.347-.231c-.154-.153-.154-.577.039-.692.885-.309 3.079-1.31 3.85-1.887.153 0 .347.077.423.27-.076.886-.076 1.463-.076 1.81 0 .23.153.423.423.423 1.617-1.001 3.427-1.963 5.39-1.963 3.195 0 4.505 2.194 4.505 4.773v6.622c0 2.771.076 3.156 1.463 3.349l.847.116c.27.192.192.847-.077.962l-3.619-.115-3.58.115c-.27-.115-.347-.77-.077-.962l.731-.116c1.425-.23 1.463-.577 1.463-3.349v-5.736c0-2.194-1.001-3.812-3.618-3.812-1.463 0-2.733.616-3.272 1.348-.501.654-.577 1.193-.577 2.31v5.891c0 2.771.076 3.118 1.463 3.349l.692.116c.27.192.192.847-.077.962a46.88 46.88 0 0 0-3.503-.115l-3.619.115c-.27-.115-.346-.77-.077-.962l.809-.116c1.425-.192 1.463-.577 1.463-3.349v-6.739zm19.83 0c0-1.502 0-1.694-1.039-2.387l-.347-.231c-.154-.153-.154-.577.039-.692.885-.309 3.079-1.31 3.965-1.887.192 0 .347.077.385.23l-.153 4.774v6.93c0 2.771.076 3.156 1.463 3.349l.808.116c.27.192.193.847-.076.962l-3.619-.115-3.619.115c-.27-.115-.346-.77-.077-.962l.809-.116c1.425-.192 1.463-.577 1.463-3.349v-6.737zm3.195-10.972c0 1.386-.962 2.002-2.04 2.002a1.89 1.89 0 0 1-1.964-1.925c0-1.271.925-2.079 2.079-2.079s1.925.924 1.925 2.002zm13.095 7.002a9.01 9.01 0 0 1 .615 3.119c-.153.27-.731.346-.924.115-.654-1.694-1.81-2.811-3.388-2.811-1.501 0-2.464.963-2.464 2.349 0 1.578 1.617 2.425 2.965 3.195 2.04 1.155 3.927 2.464 3.927 5.197 0 2.926-2.695 4.389-5.544 4.389-1.81 0-3.157-.385-4.119-1.155-.309-.731-.539-2.617-.462-3.888.192-.231.692-.27.885-.039.655 2.117 1.887 3.966 4.081 3.966 1.386 0 2.579-.809 2.579-2.464 0-1.771-1.54-2.733-2.964-3.542-2.233-1.271-3.812-2.618-3.812-4.735 0-2.811 2.31-4.389 5.235-4.389 1.618 0 3.043.385 3.39.693zm8.43 1.47c-.654 0-.693.115-.693.924v7.199c0 2.232.27 4.272 2.811 4.272a2.96 2.96 0 0 0 1.04-.192c.346-.115.847-.539.962-.539.308 0 .462.424.385.654-.692.809-2.078 1.771-4.042 1.771-3.311 0-4.004-1.848-4.004-4.158v-8.815c0-1.04-.038-1.116-.809-1.116h-1.078c-.23-.154-.269-.578-.115-.809 1.116-.347 2.079-.848 2.464-1.193.501-.463 1.232-1.502 1.617-2.271.192-.077.654-.077.809.192v1.732c0 .692.038.731.692.731h4.273c.462.347.385 1.386.039 1.617h-4.351zm8.27 2.5c0-1.502 0-1.694-1.039-2.387l-.347-.231c-.154-.153-.154-.577.039-.692.885-.309 2.926-1.31 3.888-1.887.192.038.309.115.309.27v2.232c0 .193.038.309.115.347 1.348-1.116 2.811-2.31 4.234-2.31.963 0 1.732.616 1.732 1.54 0 1.271-1.039 1.771-1.655 1.771-.385 0-.577-.115-.847-.27-.578-.385-1.155-.616-1.694-.616-.616 0-1.078.347-1.386.771-.385.539-.5 1.655-.5 2.964v5.236c0 2.771.076 3.233 1.539 3.349l1.387.116c.27.192.192.847-.077.962l-4.273-.115-3.542.115c-.27-.115-.347-.77-.077-.962l.731-.116c1.425-.23 1.463-.577 1.463-3.349zm10.24 18.98c0-1.039.693-1.54 1.54-1.54h.731c.616 0 1.001-.27 1.271-.693 1.116-1.732 1.887-3.349 2.232-4.272.116-.309.386-1.117.386-1.656 0-.77-.154-1.231-.655-2.656l-3.002-8.238c-.655-1.81-.925-2.733-2.271-3.003l-.963-.192c-.23-.192-.192-.847.115-.962l3.657.115 3.35-.115c.309.115.347.77.077.962l-.963.192c-.538.115-.847.231-.847.501 0 .462.886 2.964 1.116 3.618l1.232 3.542c.23.616.962 2.656 1.116 2.733.115-.077.731-1.271 1.425-2.849l1.309-3.041c.847-2.002 1.348-3.427 1.348-3.851 0-.27-.231-.539-.924-.654l-1.193-.192c-.27-.192-.231-.847.077-.962l3.388.115a40.05 40.05 0 0 0 2.926-.115c.308.153.346.731.077.962l-.655.115c-1.271.231-1.963 1.348-3.272 4.081l-2.155 4.428-6.313 13.474c-.654 1.463-1.579 1.81-2.464 1.81-1.119-.002-1.696-.695-1.696-1.657zm42.16-15.67c0 4.812-3.311 8.277-8.123 8.277-4.427 0-7.892-3.118-7.892-7.931 0-4.851 3.657-8.315 8.2-8.315 4.313 0 7.815 3.234 7.815 7.969zm-8.276-6.813c-2.541 0-4.428 2.425-4.428 6.66 0 3.503 1.578 7.275 4.966 7.275s4.428-3.542 4.428-6.506c0-3.272-1.309-7.429-4.966-7.429zm16.396 1.003c-.654 0-.654.076-.654 1.116v8.123c0 2.771.077 3.233 1.463 3.349l1.387.116c.269.192.192.847-.077.962l-4.196-.115-3.696.115c-.27-.115-.347-.77-.077-.962l.886-.116c1.425-.192 1.463-.577 1.463-3.349v-8.123c0-1.04 0-1.116-.77-1.116h-1.348c-.231-.154-.27-.501-.115-.732l1.655-.808c.308-.154.577-.386.577-.771 0-2.232.27-4.619 1.193-6.775.963-2.194 3.118-4.89 6.93-4.89 2.04 0 3.772.924 3.772 2.311 0 .77-.731 1.386-1.463 1.386-.423 0-.654-.154-.924-.462-.731-.847-1.81-1.694-3.079-1.694-1.194 0-2.156.731-2.733 2.117-.693 1.771-.848 4.582-.848 6.507v1.116c0 1.039 0 1.078.654 1.078h4.39c.423.385.153 1.463-.27 1.617zm-155.96 32.42c0-4.004-.077-4.581-2.348-4.851l-.616-.077c-.231-.154-.154-.847.076-.963l4.543.116h7.237l5.198-.116c.23.654.462 3.427.615 5.12-.153.231-.77.309-.962.077-.577-1.81-.924-3.156-2.927-3.657-.809-.192-2.04-.23-3.734-.23h-2.771c-1.154 0-1.154.076-1.154 1.54v7.699c0 1.078.115 1.078 1.271 1.078h2.232c1.616 0 2.811-.077 3.272-.231s.731-.385.924-1.348l.309-1.578c.192-.23.847-.23 1.001.039 0 .924-.154 2.425-.154 3.888 0 1.386.154 2.849.154 3.696-.154.27-.809.27-1.001.038l-.348-1.501c-.153-.693-.423-1.271-1.192-1.463-.539-.154-1.463-.193-2.965-.193h-2.232c-1.155 0-1.271.039-1.271 1.04v5.428c0 2.041.115 3.35.73 4.004.462.462 1.271.886 4.658.886 2.965 0 4.082-.154 4.929-.577.692-.386 1.732-1.732 2.733-3.734.27-.192.809-.077.962.27-.27 1.347-1.232 4.312-1.732 5.351l-10.317-.115h-3.465l-5.235.115c-.231-.115-.308-.731-.077-.962l1.271-.116c2.194-.192 2.387-.77 2.387-4.812v-13.861zm33.27 14.01c0 3.042.038 4.466 1.116 4.466.424 0 1.078-.192 1.655-.385.27.077.309 1.04-.038 1.232-1.617.23-4.004.808-5.082 1.231-.23 0-.423-.115-.423-.308v-.654c0-.578 0-1.04-.077-1.194h-.154c-1.694 1.155-3.003 1.771-4.851 1.771-4.273 0-7.122-3.35-7.122-7.392 0-5.39 4.081-8.854 9.316-8.854 1.309 0 2.155.192 2.579.347.192 0 .231-.231.231-.539v-5.813c0-2.271-.039-2.502-1.193-3.195l-.386-.23c-.192-.116-.192-.655 0-.771.963-.308 2.772-.886 4.158-1.617.154 0 .308.077.385.231l-.115 4.773v16.901zm-2.848-5.774c0-.77-.154-1.116-.424-1.501-.577-.809-1.732-1.617-3.233-1.617-3.504 0-5.312 3.041-5.312 6.391 0 3.503 1.963 6.814 5.735 6.814 1.039 0 2.349-.462 2.965-1.078.23-.231.27-.809.27-1.425v-7.584zm11.858 5.734c0 2.656.654 4.427 3.58 4.427a5.04 5.04 0 0 0 3.118-1.154c.501-.462.771-1.04.771-2.233v-6.313c0-2.502-.27-2.579-1.425-3.041l-.5-.192c-.27-.154-.27-.693.038-.848 1.54-.038 3.657-.308 4.505-.692.192.038.308.115.346.27-.076.731-.115 1.925-.115 3.35v6.467c0 3.042.115 4.196 1.193 4.196.462 0 .963-.076 1.502-.192.23.192.27.963-.039 1.117-1.501.308-3.734.692-5.043 1.424-.192 0-.385-.115-.462-.27v-1.578c0-.347-.115-.539-.347-.539-1.155.731-3.041 2.002-5.312 2.002-3.388 0-4.658-1.694-4.658-4.812v-6.429c0-2.426 0-2.772-1.155-3.272l-.462-.192c-.23-.192-.192-.731.077-.848 1.771-.038 3.272-.385 4.119-.692.231.038.347.115.385.27-.077.654-.115 1.463-.115 3.35v6.424zm27.33-9.39c.308.27.577.886.577 1.54 0 .693-.385 1.425-.847 1.425a.67.67 0 0 1-.539-.27c-.847-1.04-2.271-2.041-3.85-2.041-2.695 0-5.312 2.117-5.312 6.198 0 3.003 2.078 6.583 6.197 6.583 2.233 0 3.389-1.001 4.273-2.31.309-.077.654.192.693.539-1.309 2.849-4.196 3.927-6.43 3.927-2.04 0-3.927-.654-5.273-1.964s-2.233-3.195-2.233-5.697c0-4.158 2.926-8.585 9.316-8.585.887 0 2.388.193 3.428.655zm10.01 7.08c.577-.192.654-.539.654-1.117l.039-1.771c.038-1.425-.424-3.35-2.811-3.35-1.078 0-2.387.539-2.464 1.732-.039.616-.077 1.078-.385 1.31-.578.462-1.617.731-2.194.731-.347 0-.539-.192-.539-.539 0-2.002 4.35-4.735 7.16-4.735 2.771 0 4.119 1.617 4.004 4.504l-.231 6.699c-.076 1.771.27 3.349 1.771 3.349a2.22 2.22 0 0 0 .962-.23c.192-.115.386-.27.501-.27.154 0 .27.23.27.5 0 .192-1.348 1.694-3.234 1.694-.924 0-1.848-.347-2.502-1.193-.154-.231-.385-.539-.616-.539-.27 0-.731.347-1.501.77-.848.462-1.694.963-2.772.963-1.116 0-2.04-.308-2.694-.886-.731-.654-1.193-1.617-1.193-2.694 0-1.502.731-2.387 3.195-3.272zm-2.387 6.775c.77 0 1.963-.577 2.349-.963.462-.462.462-1.001.5-1.809l.077-2.271c0-.424-.154-.501-.385-.501s-.886.154-1.579.385c-2.271.771-3.388 1.348-3.388 2.85 0 .654.462 2.309 2.426 2.309zm15.357-12.355c-.654 0-.693.115-.693.924v7.199c0 2.232.27 4.272 2.811 4.272.385 0 .731-.077 1.04-.192.346-.115.847-.539.962-.539.308 0 .462.424.385.654-.692.809-2.078 1.771-4.042 1.771-3.311 0-4.004-1.848-4.004-4.158v-8.815c0-1.04-.038-1.116-.809-1.116h-1.078c-.23-.154-.27-.578-.115-.809 1.116-.347 2.079-.848 2.464-1.193.501-.463 1.232-1.502 1.617-2.271.192-.077.654-.077.809.192v1.732c0 .692.038.731.692.731h4.273c.462.347.385 1.386.039 1.617h-4.351zm8.28 2.5c0-1.502 0-1.694-1.039-2.387l-.347-.231c-.154-.153-.154-.577.039-.692.885-.309 3.079-1.31 3.965-1.887.192 0 .347.077.385.23l-.153 4.774v6.93c0 2.771.076 3.156 1.463 3.349l.808.116c.27.192.193.847-.076.962l-3.619-.115-3.619.115c-.27-.115-.346-.77-.077-.962l.809-.116c1.425-.192 1.463-.577 1.463-3.349v-6.737zm3.195-10.972c0 1.386-.962 2.002-2.04 2.002a1.89 1.89 0 0 1-1.964-1.925c0-1.271.925-2.079 2.079-2.079s1.925.924 1.925 2.002zm19.905 14.282c0 4.812-3.311 8.277-8.123 8.277-4.427 0-7.892-3.118-7.892-7.931 0-4.851 3.657-8.315 8.2-8.315 4.312 0 7.815 3.234 7.815 7.969zm-8.276-6.813c-2.541 0-4.428 2.425-4.428 6.66 0 3.503 1.578 7.275 4.966 7.275s4.428-3.542 4.428-6.506c0-3.272-1.309-7.429-4.966-7.429zm13.016 3.503c0-1.502 0-1.694-1.039-2.387l-.347-.231c-.154-.153-.154-.577.039-.692.885-.309 3.079-1.31 3.85-1.887.153 0 .347.077.423.27-.076.886-.076 1.463-.076 1.81 0 .23.153.423.423.423 1.617-1.001 3.427-1.963 5.39-1.963 3.195 0 4.505 2.194 4.505 4.773v6.622c0 2.771.076 3.156 1.463 3.349l.847.116c.27.192.192.847-.077.962l-3.619-.115-3.58.115c-.27-.115-.347-.77-.077-.962l.731-.116c1.425-.23 1.463-.577 1.463-3.349v-5.736c0-2.194-1.001-3.812-3.618-3.812-1.463 0-2.733.616-3.272 1.348-.501.654-.577 1.193-.577 2.31v5.891c0 2.771.076 3.118 1.463 3.349l.692.116c.27.192.192.847-.077.962a46.88 46.88 0 0 0-3.503-.115l-3.619.115c-.27-.115-.347-.77-.077-.962l.809-.116c1.425-.192 1.463-.577 1.463-3.349v-6.739z"/><path d="M196.93 0h1.555v147.13h-1.555z" fill="gray"/><path d="M23.704 98.701c0-2.674-.188-3.383-1.992-3.525l-1.254-.088c-.204-.16-.146-.885.04-.902 2.164-.191 4.89-.287 8.617-.287 2.524 0 4.93.18 6.733 1.01 1.724.758 3.046 2.201 3.046 4.514 0 2.6-1.684 3.936-4.088 4.945 0 .361.322.473.762.543 2.164.361 5.371 2.166 5.371 6.029 0 4.189-3.447 7.006-10.662 7.006-1.162 0-3.125-.107-4.809-.107l-4.609.107c-.24-.107-.321-.686-.08-.904l.722-.105c2.124-.326 2.204-.725 2.204-4.516v-13.72zm3.287 4.801c0 1.012.04 1.084 2.084 1.012 4.087-.146 6.292-1.229 6.292-4.623 0-3.539-2.927-4.873-5.972-4.873-.882 0-1.483.07-1.844.215-.4.107-.561.291-.561.939v7.33zm0 8.377c0 1.299.08 3.141.841 3.936.762.83 1.964 1.012 3.166 1.012 3.567 0 6.292-1.445 6.292-5.055 0-2.854-1.603-6.176-7.975-6.176-2.165 0-2.325.217-2.325.939v5.344zm41.799-9.618c0-3.271-.068-3.795-2.087-3.949l-.856-.062c-.205-.123-.136-.678.068-.771l4.314.094 4.245-.094c.206.094.274.648.069.771l-.856.062c-2.02.154-2.087.678-2.087 3.949v10.977c0 3.271.068 3.703 2.087 3.918l.856.092c.205.123.137.678-.069.771l-4.245-.094-4.314.094c-.204-.094-.273-.586-.068-.771l.856-.092c2.02-.215 2.087-.646 2.087-3.918zm19 11.03c0 3.24.064 3.701 1.924 3.855l1.027.092c.191.123.128.678-.064.771l-4.202-.094-4.459.094c-.192-.094-.256-.615 0-.771l1.155-.092c1.828-.154 1.988-.615 1.988-3.855V99.504c0-.955 0-.984-.962-.984h-1.765c-1.379 0-3.144.061-3.945.77-.77.68-1.09 1.357-1.443 2.127-.257.188-.705.031-.834-.213.513-1.389.995-3.363 1.219-4.598.097-.061.514-.092.609 0 .193.986 1.25.957 2.727.957h12.991c1.731 0 2.02-.062 2.501-.863.16-.062.514-.031.577.092-.352 1.266-.577 3.764-.481 4.688-.128.248-.674.248-.833.062-.096-.771-.32-1.912-.802-2.252-.739-.523-1.957-.77-3.721-.77h-2.278c-.961 0-.93.029-.93 1.047v13.724zm13.75-11.03c0-3.271-.068-3.795-2.087-3.949l-.856-.062c-.205-.123-.136-.678.069-.771l4.314.094 4.245-.094c.206.094.273.648.069.771l-.856.062c-2.02.154-2.089.678-2.089 3.949v10.977c0 3.271.069 3.703 2.089 3.918l.856.092c.205.123.137.678-.069.771l-4.245-.094-4.314.094c-.205-.094-.274-.586-.069-.771l.856-.092c2.019-.215 2.087-.646 2.087-3.918zm15.34 16.07c-3.057 0-4.986-.803-5.678-1.139-.438-.682-.909-2.871-.982-4.32.181-.217.728-.277.874-.092.545 1.572 2.036 4.592 6.259 4.592 3.057 0 4.549-1.693 4.549-3.543 0-1.357-.326-2.869-2.984-4.318l-3.457-1.912c-1.82-1.018-3.932-2.775-3.932-5.307 0-2.928 2.694-5.305 7.426-5.305 1.128 0 2.438.186 3.384.402.474.125.983.184 1.274.184.327.742.654 2.469.654 3.764-.145.186-.727.277-.91.094-.472-1.482-1.455-3.486-4.949-3.486-3.565 0-4.33 2.004-4.33 3.424 0 1.789 1.746 3.084 3.094 3.795l2.911 1.541c2.292 1.201 4.549 2.99 4.549 5.922-.001 3.389-3.022 5.704-7.752 5.704zm18.31-10.37c-1.593 0-1.659.064-1.659.988v4.348c0 3.24.166 3.672 2.024 3.855l.962.092c.199.123.133.678-.065.771l-4.216-.094-3.85.094c-.198-.094-.265-.586-.065-.771l.563-.092c1.859-.309 1.925-.615 1.925-3.855v-11.102c0-3.24-.231-3.762-1.958-3.887l-.863-.062c-.199-.123-.132-.678.066-.771l4.182.094 3.851-.094c.199.094.265.648.066.771l-.63.062c-1.926.186-1.992.646-1.992 3.887v3.545c0 .957.066.988 1.659.988h9.491c1.594 0 1.662-.031 1.662-.988v-3.545c0-3.24-.068-3.701-2.025-3.887l-.631-.062c-.199-.123-.134-.678.066-.771l4.016.094 3.916-.094c.199.094.265.648.066.771l-.698.062c-1.923.186-1.99.646-1.99 3.887v11.102c0 3.24.067 3.641 1.99 3.855l.797.092c.2.123.134.678-.065.771l-4.016-.094-4.016.094c-.2-.094-.266-.586-.066-.771l.631-.092c2.025-.309 2.025-.615 2.025-3.855v-4.348c0-.924-.068-.988-1.662-.988zM4.71 124.791c2.727-2.123 6.203-3.164 10.088-3.164a28.88 28.88 0 0 1 6.615.893c.448.113.709.188 1.046.148.038.857.225 3.203.523 5.475-.187.262-.748.299-1.009.074-.56-2.531-2.242-5.436-7.661-5.436-5.717 0-10.575 3.611-10.575 11.318 0 7.82 4.969 12.141 11.097 12.141 4.821 0 6.951-3.129 7.811-5.326.262-.186.823-.111.972.15-.261 1.936-1.233 4.393-1.794 5.102-.449.074-.896.223-1.308.371-.822.299-3.513.857-5.904.857-3.362 0-6.577-.67-9.304-2.496C2.318 142.851 0 139.462 0 134.658c.001-4.133 1.869-7.67 4.71-9.867zm20.437 12.05c0-6.168 4.857-10.889 11.529-10.889 7.48 0 11.237 5.15 11.237 10.58 0 6.23-4.986 10.764-11.237 10.764-7.189 0-11.529-4.902-11.529-10.455zm19.528.646c0-5.088-2.365-10.578-8.55-10.578-3.368 0-7.739 2.189-7.739 8.945 0 4.562 2.331 10.486 8.71 10.486 3.887.001 7.579-2.775 7.579-8.853zm39.775-3.306c0-1.912-.065-5.457-.622-6.385-.229-.369-.817-.588-1.634-.648l-.816-.061c-.196-.219-.131-.615.065-.74l3.727.092 3.433-.092c.261.154.229.555.066.74l-.785.061c-.818.061-1.439.34-1.635.742-.457 1.018-.457 4.564-.457 6.291v3.486c0 2.682-.459 5.52-2.289 7.371-1.406 1.447-3.826 2.25-6.246 2.25-2.255 0-4.511-.4-6.112-1.697-1.734-1.355-2.551-3.607-2.551-7.277v-7.281c0-3.205-.066-3.73-1.962-3.885l-.817-.061c-.196-.123-.131-.648.065-.74l4.054.092 4.021-.092c.196.092.262.617.065.74l-.785.061c-1.896.154-1.961.68-1.961 3.885v6.664c0 4.965 1.634 8.234 6.636 8.234 4.74 0 6.539-3.516 6.539-8.203v-3.547zm38-3.85c0-2.303-.145-2.896-1.771-3.021l-1.156-.111c-.131-.119-.201-.744.037-.76 1.951-.146 4.408-.25 7.77-.25 2.275 0 4.443.156 6.07.873 1.553.652 2.744 1.898 2.744 3.893 0 2.244-1.517 3.396-3.684 4.268 0 .312.287.406.686.469 1.951.311 4.842 1.869 4.842 5.201 0 3.613-3.107 6.043-9.613 6.043-1.045 0-2.816-.094-4.334-.094l-4.156.094c-.217-.094-.289-.592-.072-.775l.65-.096c1.916-.281 1.988-.623 1.988-3.895v-11.839zm2.963 4.143c0 .873.036.936 1.879.873 3.686-.125 5.674-1.059 5.674-3.988 0-3.053-2.639-4.205-5.385-4.205-.796 0-1.336.064-1.663.188-.36.094-.505.25-.505.811zm0 7.228c0 1.119.072 2.709.759 3.395.687.717 1.771.873 2.854.873 3.215 0 5.674-1.246 5.674-4.361 0-2.459-1.447-5.326-7.191-5.326-1.951 0-2.096.186-2.096.809zM63.56 117.241l-.856-.074-.472-.062c-1.252-.223-1.754-1.338-2.344-2.371l-2.959-5.156c-.512-.859-1.06-2.016-2.23-2.182 3.034-.363 5.775-2.115 5.775-5.121 0-3.473-3.436-5.023-6.908-5.023l-6.102.055c-1.17 0-2.56-.055-3.73-.055-.649 0-.657.133-.657.494 0 .537.226.389.915.426 2.469.139 2.374.6 2.374 2.715v13.518c0 1.932.167 2.51-1.863 2.693l-.487.051-.861.088c-.206.186-.137.678.069.77l1.268-.049 3.375-.117c1.129 0 2.211.086 3.323.117v.002l1.268.043c.207-.092.275-.586.069-.77l-.866-.082-.48-.047c-2.051-.141-1.926-.717-1.926-2.699v-5.09c0-.299-.037-1.092.183-1.322.184-.201.512-.166.804-.166 2.778 0 2.742.264 4.058 2.578l3.582 6.445c.292.494.512 1.123 1.243 1.123h3.111l1.261.041c.201-.093.269-.587.063-.773zm-12.477-10.133c-.621 0-1.865.23-1.865-.594v-5.918c0-2.311.075-2.643 2.852-2.643 3.253 0 5.264 1.652 5.264 4.693 0 1.32-.476 2.543-1.682 3.371-1.389.958-2.888 1.091-4.569 1.091zm.677 24.033c0-3.238-.067-3.732-2.205-3.887l-.849-.062c-.203-.123-.135-.676.069-.77l4.41.092 4.173-.092c.204.094.271.646.068.77l-.814.062c-2.002.154-2.07.648-2.07 3.887v10.732c0 1.943.102 2.744.712 3.332.373.338 1.017.709 3.698.709 2.883 0 3.595-.123 4.14-.4.678-.371 1.56-1.48 2.239-3.055.203-.152.848-.029.848.186 0 .34-.95 3.486-1.425 4.316l-8.448-.092h-3.121l-4.41.092c-.204-.092-.271-.586-.069-.77l1.019-.092c1.968-.186 2.035-.619 2.035-3.855zm90.88.06c0-3.27-.066-3.793-2.033-3.947l-.832-.062c-.2-.123-.134-.676.067-.77l4.196.092 4.131-.092c.199.094.266.646.066.77l-.834.062c-1.965.154-2.031.678-2.031 3.947v10.982c0 3.268.066 3.701 2.031 3.916l.834.092c.199.123.133.678-.066.77l-4.131-.092-4.196.092c-.201-.092-.268-.586-.067-.77l.832-.092c1.967-.215 2.033-.648 2.033-3.916zm-26.62 14.89l-.49-.045c-.352-.035-.666-.084-.916-.355-.432-.459-.396-1.77-.396-2.291v-13.516c0-.588-.144-1.865.288-2.324.217-.24.666-.283 1.066-.305v-.002l.463-.029.855-.061c.205-.123.137-.68-.069-.771l-1.269.023h-3.639c-.396 0-.756 0-.973.426l-7.415 15.445-6.55-14.92c-.216-.525-.251-.951-.937-.951H92.25l-1.287-.023c-.206.092-.273.648-.068.771l1.352.096c1.42.094 1.508.408 1.379 1.904l-1.115 14.498c-.098 1.453-.178 2.225-1.702 2.365l-.5.059-.856.094c-.206.182-.137.678.069.77l1.253-.039 2.348-.107c.849 0 1.699.078 2.549.113v.002l1.269.041c.205-.09.273-.584.068-.77l-.852-.093-.477-.043c-2.2-.15-2.152-1.705-2.015-3.604l1.045-13.482h.251l7.091 16.592c.071.227.179.621.539.621.325 0 .432-.361.541-.59l7.99-17.018h.254v14.826c0 .588.072 1.799-.541 2.258-.32.236-1.359.379-1.359.379l-.464.062-.856.092c-.206.184-.137.678.069.77l4.769-.158 2.51.082 1.304.07c.206-.092.273-.586.068-.771zm55.63.09l-.114-.094-.466-.062c-1.334-.299-1.854-1.906-2.346-3.049l-6.864-16.246c-.067-.193-.204-.613-.477-.613-.374 0-.476.451-.577.711l-6.557 16.215c-.238.611-.851 2.102-1.293 2.553-.338.35-.779.414-1.249.463l-1.353.137c-.205.184-.137.678.068.77l1.27-.045 2.691-.125c.755 0 1.51.082 2.266.113l1.268.047c.205-.092.273-.586.069-.771l-.856-.094-.465-.047c-.787-.086-1.771-.227-1.771-1.094 0-.582.271-1.262.476-1.779l1.02-2.426c.509-1.164.306-1.297 1.664-1.297h4.622c1.63 0 1.393 0 2.107 1.654l1.086 2.457c.171.422.475 1.133.475 1.586 0 .812-.887.867-1.717.938l-1.336.101c-.205.184-.137.678.068.77l1.268-.049 2.873-.109 3.57.113c.391.012.061.025.512.043.205-.094.274-.588.068-.771zm-8.99-7.637h-4.005c-.14 0-1.255.131-1.255-.197 0-.096.07-.293.105-.389l2.404-5.955c.068-.162.312-.979.592-.979.208 0 .488.85.557.979l2.367 5.561c0 .066.244.588.244.721.001.358-.8.259-1.009.259z"/><path d="M37.881 75.873c21.681 0 51.671 12.207 73.433 12.207 15.528 0 30.682-4.145 39.308-10.246.602-3.583.92-7.263.92-11.017 0-36.439-29.539-65.979-65.978-65.979s-65.978 29.54-65.978 65.979c0 3.711.312 7.348.9 10.892 2.379-.44 10.464-1.836 17.395-1.836z" fill="#fff"/><path d="M136.58 48.608l-8.39 2.953 2.61 1.08zM30.978 47.056l-6.857-2.413.343-.841 7.723 2.576.034-.019 1.019-.578.406-.255-8.421-3.583.355-.88 18.796 7.602.62-.258-18.641-9.083.416-.855 19.753 9.194.273-.139-19.153-10.862.393-.817 27.659 15.05c.228-.418.702-1.181.946-1.591-10.516-9.886-20.664-17.311-20.664-17.311s10.436 6.99 23.315 13.487l1.229-1.462-23.597-20.773.634-.651 19.045 16.231L38.96 21.157l.66-.684 19.809 19.144L40.99 19.152l.705-.637 17.042 18.25-15.555-19.6.67-.609 19.939 24.266c.515-.445.943-.78 1.483-1.193C59.243 26.578 52.656 15.96 52.656 15.96s7.01 10.319 16.469 21.127l1.762-.93-.1-.066L56.813 8.203l.831-.366L69.222 30.02l-9.74-22.992.868-.386 11.196 25.171-9.431-25.884.892-.326 8.965 23.306-7.08-24 .85-.313 9.322 29.768-.018.079.023-.009 1.885-.564c-.71-14.298-2.825-26.528-2.825-26.528s2.618 12.123 7.314 25.64l1.976-.193-.021-.031h.082l-.047-.068-2.509-31.092.907-.028 2.424 24.906-.417-24.966.949-.033.951 27.532.952-27.532.95.033-.417 24.966 2.424-24.905.907.028-2.509 31.092-.047.068h.014l-.007.01h.041l1.932.182c4.689-13.504 7.304-25.607 7.304-25.607s-2.108 12.193-2.822 26.465l1.897.56 9.29-29.664.851.314-7.083 24 8.967-23.305.891.326-9.431 25.883 11.194-25.171.871.386-9.741 22.992 11.577-22.183.83.365L100.65 36.1l.023.01 1.691.887c9.417-10.774 16.388-21.034 16.388-21.034s-6.541 10.545-12.555 23.533l1.574 1.261 19.704-24.001.673.609-15.558 19.596 17.044-18.25.704.636-18.439 20.466 19.809-19.146.662.685-17.645 17.669L133.77 22.79l.633.649-23.294 20.553 1.183 1.396c12.799-6.471 23.141-13.397 23.141-13.397s-10.049 7.352-20.51 17.167l1.014 1.787 27.266-14.846.396.818-21.769 12.347 22.639-10.535.416.854-21.088 10.275.406.141 21.455-8.679.357.882-19.945 8.482.373.154 13.291-4.43 2.003-1.398.665.507 4.373-1.458.344.839-3.783 1.332 5.467 4.172 1.752.977C143.526 21.999 117.098.155 85.564.155c-32.088 0-58.889 22.618-65.343 52.778l.246-.118.801-.362.49-.23z" fill="#999"/><path d="M19.843 79.135s9.857-1.967 18.086-1.967c21.681 0 51.672 12.207 73.433 12.207 15.965 0 31.533-4.379 40.018-10.766.663-3.776 1.011-7.661 1.011-11.628 0-5.373-.638-10.596-1.835-15.602l-9.073-5.061-10.644 7.467-7.16-2.789c-2.425 1.225-17.379 11.225-17.379 11.225l-5.741-4.154-6.158-1.222-8.212-5.977-9.42 6.466-10.87 6.103c-.362 0-12.679-9.764-12.679-9.764l-5.675-5.979c-.967.61-4.827 2.382-4.827 2.382l-.199.053-3.734-1.156-4.537-2.405-13.779 6.248-.246.118a67.09 67.09 0 0 0-1.484 14.047 66.95 66.95 0 0 0 1.104 12.154z"/></svg>