<svg xmlns="http://www.w3.org/2000/svg" viewBox="0 0 521.794 196.671" height="197" width="522"><g fill="#273d76"><path d="M316.055 130.375l3.541 7.033h.103c1.385-2.413 2.669-5.082 3.953-7.7l4.824-9.804c2.311-4.671 3.799-7.493 3.903-9.856 1.745.155 2.823.155 3.849.155l4.568-.155c.308.205.308 1.079.052 1.284l-1.079.103c-3.235.307-3.644 1.283-3.593 4.876l.565 22.329c.155 2.566.103 3.953 2.515 4.157l1.644.155c.307.307.255 1.078-.104 1.282l-6.057-.154-6.211.154c-.36-.256-.411-.975-.103-1.282l1.488-.155c2.516-.256 2.516-1.076 2.516-4.362l-.155-21.404h-.101c-.361.563-2.311 4.669-3.337 6.672l-4.568 8.982-5.544 11.705c-.103.154-.308.204-.513.204-.103 0-.36-.051-.463-.204-.872-2.721-3.335-7.752-4.516-10.267l-4.62-9.906-3.285-7.392h-.103l-.513 9.137-.36 12.062c0 3.799.308 4.62 2.311 4.773l1.951.155c.359.307.307 1.129-.051 1.282l-5.699-.154-5.236.154c-.308-.256-.409-1.026-.101-1.282l1.128-.155c2.156-.307 2.875-.616 3.183-4.208l.872-11.293.565-11.446c.103-3.235-.308-4.004-3.439-4.415l-.821-.103c-.257-.309-.207-1.079.205-1.284l4.055.155c1.181 0 2.567 0 4.26-.155-.204 2.003 1.079 5.185 2.669 8.471l5.852 11.856m30.749-1.026c0-2.003 0-2.259-1.387-3.182l-.461-.308c-.207-.205-.207-.771.052-.924 1.179-.412 4.105-1.745 5.285-2.516.257 0 .463.104.513.308l-.204 6.366v9.239c0 3.695.101 4.208 1.951 4.464l1.076.155c.36.256.259 1.129-.101 1.282l-4.825-.154-4.825.154c-.36-.154-.463-1.026-.103-1.282l1.079-.155c1.899-.256 1.951-.769 1.951-4.464zm4.26-14.629c0 1.848-1.283 2.669-2.72 2.669-1.592 0-2.619-1.181-2.619-2.567 0-1.693 1.233-2.772 2.772-2.772s2.567 1.232 2.567 2.669m8.417 14.629c0-2.003 0-2.259-1.385-3.182l-.461-.308c-.207-.205-.207-.771.052-.924 1.179-.412 4.105-1.745 5.132-2.516.204 0 .463.104.564.36-.101 1.181-.101 1.951-.101 2.413 0 .307.204.563.564.563 2.156-1.335 4.568-2.617 7.185-2.617 4.261 0 6.007 2.927 6.007 6.365v8.83c0 3.695.101 4.208 1.951 4.464l1.129.155c.359.256.256 1.129-.103 1.282l-4.825-.154-4.775.154c-.359-.154-.461-1.026-.103-1.282l.976-.155c1.899-.307 1.951-.769 1.951-4.464v-7.649c0-2.926-1.335-5.082-4.825-5.082-1.951 0-3.644.821-4.363 1.797-.668.872-.769 1.59-.769 3.079v7.854c0 3.695.101 4.157 1.951 4.464l.923.155c.36.256.256 1.129-.103 1.282-1.385-.103-2.873-.154-4.671-.154l-4.825.154c-.36-.154-.461-1.026-.103-1.282l1.077-.155c1.9-.256 1.951-.769 1.951-4.464v-8.983m26.437 0c0-2.003 0-2.259-1.385-3.182l-.461-.308c-.207-.205-.207-.771.052-.924 1.18-.412 4.105-1.745 5.287-2.516.256 0 .461.104.512.308l-.204 6.366v9.239c0 3.695.101 4.208 1.951 4.464l1.077.155c.359.256.257 1.129-.103 1.282l-4.825-.154-4.825.154c-.359-.154-.461-1.026-.103-1.282l1.077-.155c1.9-.256 1.951-.769 1.951-4.464zm4.261-14.629c0 1.848-1.283 2.669-2.72 2.669-1.592 0-2.619-1.181-2.619-2.567 0-1.693 1.233-2.772 2.772-2.772s2.567 1.232 2.567 2.669m17.452 9.341c.461 1.131.821 2.772.821 4.159-.205.359-.976.461-1.232.154-.873-2.259-2.413-3.747-4.517-3.747-2.001 0-3.285 1.284-3.285 3.131 0 2.104 2.156 3.233 3.953 4.26 2.72 1.541 5.236 3.286 5.236 6.93 0 3.9-3.593 5.851-7.392 5.851-2.412 0-4.209-.513-5.492-1.54-.412-.976-.719-3.49-.616-5.184.256-.308.923-.359 1.18-.052.873 2.823 2.516 5.288 5.441 5.288 1.848 0 3.439-1.078 3.439-3.285 0-2.362-2.053-3.645-3.952-4.723-2.977-1.694-5.081-3.491-5.081-6.314 0-3.747 3.079-5.852 6.98-5.852 2.156 0 4.056.513 4.517.924m11.241 1.952c-.872 0-.924.153-.924 1.231v9.599c0 2.977.359 5.697 3.747 5.697.513 0 .976-.103 1.387-.257.461-.154 1.129-.718 1.283-.718.411 0 .616.564.513.872-.923 1.078-2.771 2.361-5.389 2.361-4.415 0-5.339-2.464-5.339-5.544v-11.754c0-1.387-.051-1.488-1.079-1.488h-1.437c-.307-.207-.357-.771-.153-1.079 1.489-.461 2.772-1.131 3.285-1.591.668-.617 1.644-2.003 2.156-3.028.257-.104.873-.104 1.079.256v2.31c0 .922.051.974.923.974h5.699c.616.463.512 1.848.052 2.157h-5.801m11.037 3.335c0-2.003 0-2.259-1.385-3.182l-.463-.308c-.207-.205-.207-.771.052-.924 1.179-.412 3.9-1.745 5.184-2.516.256.052.411.155.411.36v2.976c0 .259.051.412.153.463 1.797-1.488 3.748-3.08 5.647-3.08 1.284 0 2.309.823 2.309 2.055 0 1.693-1.385 2.36-2.207 2.36-.513 0-.769-.153-1.129-.359-.771-.513-1.54-.822-2.259-.822-.821 0-1.437.463-1.848 1.028-.513.718-.667 2.207-.667 3.951v6.982c0 3.695.101 4.312 2.052 4.464l1.849.155c.36.256.256 1.129-.103 1.282l-5.699-.154-4.723.154c-.359-.154-.461-1.026-.103-1.282l.976-.155c1.899-.307 1.951-.769 1.951-4.464v-8.983m13.653 25.306c0-1.386.924-2.054 2.053-2.054h.975a1.86 1.86 0 0 0 1.695-.924c1.488-2.31 2.515-4.465 2.976-5.696.155-.412.515-1.49.515-2.208 0-1.026-.205-1.642-.873-3.542l-4.003-10.984c-.875-2.413-1.233-3.645-3.029-4.003l-1.284-.257c-.307-.256-.256-1.129.153-1.283l4.877.153 4.465-.153c.412.153.463 1.027.103 1.283l-1.283.257c-.717.153-1.129.308-1.129.668 0 .616 1.181 3.951 1.488 4.823l1.643 4.723c.308.821 1.284 3.542 1.489 3.644.153-.103.975-1.694 1.899-3.798l1.745-4.055c1.129-2.669 1.797-4.569 1.797-5.134 0-.36-.309-.719-1.232-.872l-1.591-.257c-.36-.256-.309-1.129.103-1.283l4.516.153c1.283 0 2.464-.052 3.901-.153.411.205.461.976.104 1.283l-.875.155c-1.693.308-2.617 1.796-4.363 5.441l-2.875 5.904-8.417 17.965c-.872 1.951-2.105 2.413-3.285 2.413-1.489 0-2.259-.924-2.259-2.207"/><path d="M499.771 133.763c0 6.416-4.413 11.036-10.831 11.036-5.903 0-10.523-4.157-10.523-10.574 0-6.468 4.877-11.088 10.935-11.088 5.748 0 10.419 4.312 10.419 10.626zm-11.035-9.084c-3.389 0-5.904 3.233-5.904 8.88 0 4.67 2.104 9.7 6.621 9.7s5.904-4.723 5.904-8.674c0-4.364-1.745-9.906-6.621-9.906m21.865 1.335c-.872 0-.872.101-.872 1.488v10.831c0 3.695.103 4.312 1.951 4.464l1.848.155c.359.256.257 1.129-.103 1.282l-5.595-.154-4.928.154c-.36-.154-.463-1.026-.103-1.282l1.18-.155c1.9-.256 1.951-.769 1.951-4.464v-10.831c0-1.387 0-1.488-1.027-1.488h-1.796c-.308-.207-.36-.668-.153-.976l2.207-1.077c.409-.207.769-.515.769-1.028 0-2.976.36-6.159 1.591-9.033 1.285-2.925 4.159-6.52 9.24-6.52 2.72 0 5.031 1.232 5.031 3.082 0 1.025-.976 1.847-1.951 1.847-.564 0-.872-.205-1.232-.615-.976-1.129-2.413-2.26-4.105-2.26-1.592 0-2.876.976-3.645 2.823-.924 2.363-1.129 6.111-1.129 8.676v1.488c0 1.385 0 1.437.872 1.437h5.853c.564.515.204 1.951-.36 2.157h-5.493m-207.945 43.222c0-5.339-.103-6.108-3.131-6.468l-.821-.103c-.308-.206-.205-1.129.101-1.284l6.057.155h9.651l6.931-.155c.307.872.616 4.568.82 6.826-.204.309-1.027.411-1.283.103-.769-2.413-1.232-4.209-3.903-4.877-1.077-.256-2.72-.307-4.979-.307h-3.696c-1.539 0-1.539.102-1.539 2.054v10.266c0 1.437.153 1.437 1.695 1.437h2.976c2.155 0 3.748-.103 4.364-.309s.975-.513 1.231-1.797l.412-2.104c.257-.307 1.129-.307 1.335.053 0 1.231-.205 3.233-.205 5.183 0 1.847.205 3.798.205 4.928-.205.359-1.077.359-1.335.051l-.464-2.002c-.204-.924-.563-1.694-1.589-1.95-.719-.206-1.951-.259-3.953-.259h-2.976c-1.541 0-1.695.053-1.695 1.387v7.237c0 2.721.153 4.466.975 5.339.616.616 1.693 1.18 6.211 1.18 3.953 0 5.443-.206 6.572-.769.923-.515 2.309-2.31 3.644-4.979.359-.257 1.079-.103 1.283.359-.359 1.795-1.643 5.748-2.309 7.134l-13.757-.154h-4.62l-6.98.154c-.309-.154-.411-.975-.103-1.282l1.693-.155c2.927-.256 3.183-1.025 3.183-6.415v-18.479m44.352 18.683c0 4.056.051 5.955 1.488 5.955.565 0 1.437-.257 2.207-.513.36.102.412 1.386-.051 1.643-2.156.307-5.339 1.076-6.776 1.641-.307 0-.564-.154-.564-.41v-.872c0-.771 0-1.386-.103-1.592h-.205c-2.259 1.54-4.004 2.361-6.468 2.361-5.697 0-9.496-4.466-9.496-9.855 0-7.186 5.441-11.806 12.421-11.806 1.745 0 2.875.257 3.44.462.256 0 .308-.309.308-.719v-7.752c0-3.029-.052-3.336-1.591-4.26l-.515-.307c-.257-.155-.257-.873 0-1.027 1.284-.41 3.696-1.181 5.544-2.156.207 0 .411.103.513.309l-.153 6.364zm-3.799-7.699c0-1.026-.205-1.488-.565-2.002-.769-1.078-2.309-2.156-4.311-2.156-4.672 0-7.084 4.055-7.084 8.521 0 4.671 2.617 9.086 7.648 9.086 1.385 0 3.131-.616 3.952-1.437.308-.309.36-1.079.36-1.9V180.22m15.809 7.649c0 3.542.873 5.903 4.773 5.903 1.388 0 3.029-.564 4.159-1.539.668-.616 1.027-1.387 1.027-2.978v-8.418c0-3.336-.359-3.438-1.899-4.055l-.667-.256c-.36-.206-.36-.924.049-1.13 2.055-.051 4.877-.411 6.008-.923.256.051.409.154.46.359-.101.975-.153 2.567-.153 4.466v8.622c0 4.056.153 5.595 1.591 5.595.616 0 1.284-.102 2.003-.257.308.257.36 1.284-.052 1.49-2.001.41-4.979.923-6.724 1.898-.256 0-.513-.154-.616-.359v-2.104c0-.462-.153-.719-.461-.719-1.541.976-4.055 2.669-7.084 2.669-4.517 0-6.211-2.259-6.211-6.416v-8.571c0-3.234 0-3.697-1.541-4.364l-.615-.256c-.308-.257-.257-.975.103-1.13 2.36-.051 4.363-.513 5.492-.923.309.051.463.154.513.359-.103.872-.155 1.951-.155 4.466v8.572m36.448-12.525c.409.359.769 1.181.769 2.054 0 .924-.513 1.899-1.129 1.899-.257 0-.513-.103-.719-.359-1.129-1.387-3.029-2.722-5.133-2.722-3.593 0-7.083 2.823-7.083 8.265 0 4.003 2.771 8.777 8.263 8.777 2.977 0 4.519-1.334 5.699-3.079.411-.103.872.256.924.719-1.745 3.798-5.596 5.235-8.573 5.235-2.72 0-5.236-.872-7.031-2.618s-2.979-4.261-2.979-7.597c0-5.544 3.901-11.447 12.423-11.447 1.181 0 3.181.257 4.569.872m13.345 9.445c.769-.256.873-.719.873-1.49l.052-2.361c.051-1.9-.565-4.466-3.748-4.466-1.437 0-3.183.719-3.285 2.31-.052.822-.103 1.437-.513 1.746-.771.616-2.156.976-2.925.976-.463 0-.719-.257-.719-.719 0-2.669 5.8-6.314 9.547-6.314 3.696 0 5.492 2.156 5.339 6.006l-.308 8.932c-.103 2.361.359 4.465 2.361 4.465a2.95 2.95 0 0 0 1.283-.307c.256-.154.515-.359.668-.359.205 0 .359.307.359.667 0 .256-1.796 2.259-4.312 2.259-1.232 0-2.464-.462-3.336-1.591-.205-.308-.513-.719-.821-.719-.359 0-.976.463-2.001 1.026-1.131.616-2.259 1.284-3.696 1.284-1.489 0-2.721-.41-3.593-1.181-.975-.872-1.591-2.156-1.591-3.592 0-2.003.975-3.183 4.26-4.364zm-3.181 9.034c1.025 0 2.616-.769 3.131-1.284.616-.616.616-1.334.667-2.411l.103-3.029c0-.565-.205-.668-.512-.668s-1.181.206-2.107.513c-3.028 1.027-4.516 1.797-4.516 3.799 0 .872.616 3.079 3.235 3.079m20.48-16.477c-.873 0-.925.154-.925 1.232v9.599c0 2.977.36 5.697 3.748 5.697a3.92 3.92 0 0 0 1.387-.257c.461-.154 1.129-.718 1.283-.718.411 0 .616.564.513.872-.924 1.078-2.771 2.361-5.389 2.361-4.415 0-5.339-2.464-5.339-5.544v-11.754c0-1.387-.051-1.489-1.079-1.489h-1.437c-.307-.206-.359-.771-.153-1.078 1.488-.462 2.772-1.13 3.285-1.591.668-.617 1.643-2.003 2.156-3.028.256-.103.872-.103 1.077.256v2.31c0 .923.052.975.924.975h5.697c.616.462.513 1.848.053 2.156h-5.801m11.036 3.336c0-2.003 0-2.259-1.385-3.182l-.461-.308c-.207-.205-.207-.77.052-.923 1.179-.412 4.105-1.746 5.285-2.516.257 0 .463.103.513.308l-.204 6.365v9.24c0 3.695.101 4.208 1.951 4.464l1.076.155c.36.256.259 1.128-.101 1.282l-4.825-.154-4.825.154c-.36-.154-.461-1.026-.103-1.282l1.077-.155c1.9-.256 1.951-.769 1.951-4.464zm4.26-14.629c0 1.847-1.281 2.669-2.719 2.669-1.592 0-2.619-1.181-2.619-2.567 0-1.694 1.233-2.772 2.772-2.772s2.565 1.232 2.565 2.669m26.539 19.043c0 6.417-4.415 11.036-10.831 11.036-5.903 0-10.523-4.157-10.523-10.574 0-6.468 4.877-11.087 10.933-11.087 5.749 0 10.42 4.311 10.42 10.625zm-11.036-9.084c-3.388 0-5.903 3.233-5.903 8.88 0 4.67 2.104 9.7 6.621 9.7s5.903-4.723 5.903-8.674c0-4.363-1.744-9.906-6.621-9.906m17.351 4.671c0-2.003 0-2.259-1.385-3.182l-.463-.308c-.205-.205-.205-.77.052-.923 1.18-.412 4.107-1.746 5.133-2.516.205 0 .463.103.564.359-.101 1.181-.101 1.951-.101 2.413 0 .307.204.564.564.564 2.156-1.334 4.568-2.617 7.185-2.617 4.261 0 6.007 2.926 6.007 6.364v8.83c0 3.695.101 4.208 1.951 4.464l1.129.155c.359.256.256 1.128-.104 1.282l-4.825-.154-4.773.154c-.359-.154-.461-1.026-.103-1.282l.976-.155c1.9-.307 1.951-.769 1.951-4.464v-7.648c0-2.926-1.335-5.082-4.825-5.082-1.949 0-3.644.822-4.363 1.798-.668.872-.769 1.59-.769 3.079v7.854c0 3.695.101 4.157 1.951 4.464l.923.155c.359.256.257 1.128-.103 1.282-1.385-.103-2.873-.154-4.671-.154l-4.825.154c-.36-.154-.463-1.026-.103-1.282l1.077-.155c1.9-.256 1.951-.769 1.951-4.464v-8.983"/></g><path d="M262.876.001v196.167h2.073V.001h-2.073" fill="#dfa319"/><g fill="#273d76"><path d="M31.604 131.746c0-3.565-.25-4.51-2.656-4.701l-1.672-.117c-.272-.213-.195-1.179.054-1.202 2.884-.255 6.519-.383 11.489-.383 3.366 0 6.573.24 8.978 1.347 2.298 1.01 4.061 2.934 4.061 6.018 0 3.466-2.244 5.247-5.451 6.594 0 .482.429.63 1.017.724 2.885.482 7.16 2.888 7.16 8.039 0 5.586-4.596 9.341-14.216 9.341-1.55 0-4.167-.143-6.412-.143l-6.146.143c-.32-.143-.428-.914-.107-1.206l.963-.141c2.831-.435 2.938-.966 2.938-6.021zm4.383 6.401c0 1.349.053 1.445 2.779 1.349 5.45-.195 8.39-1.638 8.39-6.164 0-4.719-3.903-6.498-7.963-6.498-1.176 0-1.977.093-2.459.287-.534.143-.747.388-.747 1.253zm0 11.169c0 1.732.106 4.187 1.122 5.247 1.016 1.107 2.618 1.349 4.221 1.349 4.756 0 8.39-1.927 8.39-6.74 0-3.805-2.137-8.234-10.634-8.234-2.886 0-3.099.289-3.099 1.253v7.125m55.738-12.831c0-4.362-.091-5.06-2.784-5.266l-1.141-.084c-.273-.164-.181-.904.091-1.029l5.752.125 5.66-.125c.273.125.365.865.092 1.029l-1.143.084c-2.692.206-2.783.903-2.783 5.266v14.635c0 4.362.091 4.938 2.783 5.224l1.143.122c.273.164.181.904-.092 1.029l-5.66-.125-5.752.125c-.272-.125-.364-.781-.091-1.029l1.141-.122c2.693-.286 2.784-.862 2.784-5.224v-14.635m25.324 14.719c0 4.32.087 4.935 2.565 5.141l1.371.122c.255.164.171.904-.087 1.029l-5.603-.125-5.945.125c-.256-.125-.341-.82 0-1.029l1.54-.122c2.437-.206 2.652-.82 2.652-5.141v-18.383c0-1.273 0-1.312-1.283-1.312h-2.353c-1.839 0-4.191.081-5.26 1.026-1.027.906-1.453 1.81-1.924 2.836-.343.25-.94.042-1.112-.284.684-1.851 1.327-4.484 1.625-6.13.128-.081.684-.123.812 0 .257 1.315 1.668 1.276 3.635 1.276h17.323c2.307 0 2.692-.083 3.335-1.151.213-.083.684-.042.769.122-.469 1.688-.769 5.018-.643 6.25-.169.331-.897.331-1.109.084-.128-1.029-.428-2.55-1.069-3.003-.985-.698-2.609-1.026-4.961-1.026h-3.037c-1.281 0-1.24.039-1.24 1.396v18.299m18.329-14.719c0-4.362-.091-5.06-2.783-5.266l-1.143-.084c-.273-.164-.181-.904.092-1.029l5.752.125 5.66-.125c.273.125.364.865.092 1.029l-1.143.084c-2.692.206-2.785.903-2.785 5.266v14.635c0 4.362.093 4.938 2.785 5.224l1.143.122c.272.164.181.904-.092 1.029l-5.66-.125-5.752.125c-.273-.125-.365-.781-.092-1.029l1.143-.122c2.692-.286 2.783-.862 2.783-5.224v-14.635m20.456 21.432c-4.076 0-6.647-1.07-7.569-1.518-.583-.909-1.213-3.828-1.311-5.76.241-.289.969-.37 1.165-.123.727 2.097 2.716 6.123 8.347 6.123 4.075 0 6.064-2.258 6.064-4.724 0-1.81-.436-3.825-3.979-5.758l-4.609-2.55c-2.427-1.357-5.243-3.7-5.243-7.075 0-3.904 3.592-7.073 9.9-7.073 1.504 0 3.252.247 4.512.536.633.167 1.311.245 1.699.245.437.99.875 3.292.875 5.018-.195.247-.971.37-1.213.125-.631-1.976-1.941-4.648-6.6-4.648-4.755 0-5.773 2.672-5.773 4.565 0 2.385 2.328 4.112 4.125 5.06l3.88 2.055c3.057 1.601 6.065 3.987 6.065 7.896 0 4.521-4.027 7.607-10.335 7.607m24.423-13.828c-2.121 0-2.211.086-2.211 1.318v5.797c0 4.32.221 4.896 2.699 5.141l1.283.122c.267.164.177.904-.088 1.029l-5.62-.125-5.132.125c-.267-.125-.355-.781-.089-1.029l.753-.122c2.477-.412 2.564-.82 2.564-5.141v-14.802c0-4.32-.307-5.016-2.611-5.182l-1.149-.084c-.265-.164-.177-.904.089-1.029l5.575.125 5.133-.125c.265.125.353.865.088 1.029l-.84.084c-2.565.247-2.655.862-2.655 5.182v4.726c0 1.276.089 1.318 2.211 1.318h12.657c2.124 0 2.213-.042 2.213-1.318v-4.726c0-4.32-.089-4.935-2.7-5.182l-.84-.084c-.267-.164-.179-.904.088-1.029l5.353.125 5.221-.125c.265.125.353.865.089 1.029l-.931.084c-2.564.247-2.655.862-2.655 5.182v14.802c0 4.32.091 4.854 2.655 5.141l1.063.122c.267.164.179.904-.087 1.029l-5.356-.125-5.353.125c-.267-.125-.355-.781-.088-1.029l.84-.122c2.7-.412 2.7-.82 2.7-5.141v-5.797c0-1.232-.089-1.318-2.213-1.318h-12.657M6.279 166.533c3.636-2.831 8.271-4.219 13.451-4.219 2.692 0 6.478.544 8.821 1.19.597.151.946.25 1.394.198.05 1.143.299 4.271.697 7.299-.249.349-.997.398-1.345.099-.746-3.375-2.99-7.247-10.214-7.247-7.622 0-14.099 4.815-14.099 15.091 0 10.427 6.625 16.187 14.796 16.187 6.428 0 9.268-4.172 10.414-7.102.349-.247 1.097-.148 1.296.201-.349 2.581-1.644 5.857-2.392 6.802-.598.099-1.195.297-1.744.495-1.096.398-4.683 1.143-7.872 1.143-4.483 0-8.769-.893-12.406-3.328C3.09 190.614 0 186.095 0 179.689c0-5.511 2.492-10.227 6.279-13.156m27.249 16.06c0-8.224 6.477-14.518 15.372-14.518 9.974 0 14.982 6.867 14.982 14.107 0 8.307-6.648 14.351-14.982 14.351-9.585 0-15.372-6.536-15.372-13.94zm26.037.862c0-6.784-3.153-14.104-11.399-14.104-4.491 0-10.319 2.919-10.319 11.927 0 6.083 3.108 13.982 11.614 13.982 5.182 0 10.105-3.7 10.105-11.805m53.031-4.399c0-2.549-.088-7.276-.829-8.513-.304-.492-1.089-.784-2.179-.865l-1.089-.081c-.261-.292-.175-.82.087-.987l4.971.123 4.576-.123c.348.206.305.74.088.987l-1.047.081c-1.091.081-1.92.453-2.18.99-.609 1.357-.609 6.086-.609 8.388v4.649c0 3.575-.612 7.359-3.052 9.828-1.875 1.93-5.1 3-8.327 3-3.007 0-6.015-.534-8.149-2.263-2.312-1.807-3.401-4.81-3.401-9.703v-9.708c0-4.273-.088-4.974-2.616-5.18l-1.089-.081c-.261-.164-.175-.864.088-.987l5.404.123 5.363-.123c.26.123.348.823.087.987l-1.047.081c-2.528.206-2.615.906-2.615 5.18v8.885c0 6.62 2.179 10.979 8.848 10.979 6.32 0 8.719-4.687 8.719-10.937v-4.729m50.665-5.138c0-3.07-.193-3.862-2.361-4.029l-1.541-.148c-.177-.159-.269-.992.047-1.013 2.603-.195 5.879-.333 10.36-.333 3.036 0 5.924.208 8.095 1.164 2.071.87 3.66 2.531 3.66 5.19 0 2.992-2.024 4.529-4.913 5.69 0 .417.384.542.916.625 2.601.414 6.455 2.492 6.455 6.935 0 4.818-4.143 8.057-12.817 8.057-1.395 0-3.756-.125-5.779-.125l-5.541.125c-.289-.125-.385-.789-.096-1.034l.867-.127c2.553-.375 2.651-.831 2.651-5.193zm3.951 5.523c0 1.164.047 1.247 2.504 1.164 4.916-.167 7.565-1.411 7.565-5.318 0-4.07-3.517-5.607-7.179-5.607-1.063 0-1.783.086-2.219.25-.48.125-.672.333-.672 1.081zm0 9.638c0 1.492.096 3.612 1.011 4.526.916.956 2.36 1.164 3.805 1.164 4.288 0 7.565-1.661 7.565-5.815 0-3.279-1.928-7.102-9.587-7.102-2.603 0-2.795.247-2.795 1.078v6.148m-82.465-32.612l-1.141-.099-.631-.084c-1.669-.297-2.339-1.784-3.125-3.161l-3.945-6.875c-.683-1.146-1.413-2.687-2.973-2.909 4.044-.484 7.699-2.82 7.699-6.828 0-4.63-4.58-6.698-9.211-6.698l-8.136.073c-1.56 0-3.414-.073-4.973-.073-.866 0-.876.177-.876.659 0 .716.301.518 1.219.568 3.292.185 3.166.8 3.166 3.62v18.023c0 2.576.222 3.346-2.484 3.591l-.65.068-1.148.117c-.274.247-.182.904.093 1.026l1.69-.065 4.499-.156c1.506 0 2.949.115 4.43.156v.002l1.691.057c.276-.122.367-.781.093-1.026l-1.155-.109-.64-.062c-2.736-.188-2.569-.956-2.569-3.599v-6.786c0-.398-.049-1.456.244-1.763.245-.268.683-.221 1.072-.221 3.705 0 3.656.352 5.411 3.438l4.776 8.594c.389.659.683 1.497 1.656 1.497h4.148l1.681.055c.273-.122.364-.781.091-1.029zm-16.636-13.511c-.828 0-2.487.307-2.487-.792v-7.89c0-3.081.1-3.523 3.802-3.523 4.339 0 7.019 2.203 7.019 6.258 0 1.76-.633 3.391-2.241 4.495-1.852 1.276-3.851 1.453-6.092 1.453m.895 32.044c0-4.318-.091-4.977-2.939-5.182l-1.132-.083c-.27-.164-.18-.901.092-1.026l5.88.123 5.564-.123c.272.125.363.862.091 1.026l-1.085.083c-2.669.206-2.76.865-2.76 5.182v14.31c0 2.591.136 3.659.951 4.443.496.45 1.355.945 4.931.945 3.844 0 4.793-.164 5.519-.534.905-.495 2.08-1.974 2.985-4.073.271-.203 1.131-.039 1.131.247 0 .453-1.268 4.649-1.9 5.755l-11.264-.122h-4.161l-5.88.122c-.272-.122-.362-.781-.092-1.026l1.358-.122c2.623-.247 2.714-.826 2.714-5.141v-14.805"/><path d="M190.184 175.082c0-4.359-.088-5.057-2.709-5.263l-1.109-.083c-.268-.164-.179-.901.089-1.026l5.596.123 5.508-.123c.265.125.355.862.087 1.026l-1.111.083c-2.62.206-2.708.904-2.708 5.263v14.643c0 4.357.088 4.935 2.708 5.221l1.111.122c.268.164.179.904-.087 1.026l-5.508-.122-5.596.122c-.268-.122-.357-.781-.089-1.026l1.109-.122c2.621-.286 2.709-.865 2.709-5.221v-14.643m-35.488 19.854l-.653-.06c-.471-.047-.888-.112-1.221-.474-.577-.612-.528-2.36-.528-3.055v-18.021c0-.784-.191-2.487.384-3.099.288-.321.889-.378 1.421-.406v-.003l.617-.039 1.143-.081c.273-.164.181-.906-.095-1.029l-1.689.031h-4.852c-.529 0-1.008 0-1.297.568l-9.887 20.594-8.733-19.893c-.288-.701-.335-1.268-1.249-1.268h-5.051l-1.716-.031c-.275.123-.364.865-.091 1.029l1.803.128c1.895.125 2.012.544 1.839 2.539l-1.487 19.331c-.131 1.937-.236 2.966-2.269 3.154l-.665.078-1.141.125c-.273.242-.183.904.092 1.026l1.671-.052 3.131-.143c1.131 0 2.265.104 3.399.151v.003l1.692.055c.273-.12.364-.779.092-1.026l-1.143-.123-.636-.057c-2.933-.201-2.869-2.274-2.685-4.805l1.392-17.976h.336l9.455 22.122c.096.302.239.828.719.828.433 0 .576-.482.721-.786l10.653-22.69h.337v19.768c0 .784.096 2.398-.72 3.01-.427.315-1.812.505-1.812.505l-.62.084-1.141.122c-.275.245-.183.904.092 1.026l6.359-.211 3.347.11 1.74.094c.273-.123.364-.782.089-1.029l-1.14-.122m74.164.115l-.153-.125-.621-.084c-1.777-.398-2.471-2.542-3.127-4.065l-9.153-21.661c-.089-.258-.271-.818-.635-.818-.497 0-.633.602-.768.948l-8.744 21.62c-.317.815-1.133 2.802-1.723 3.404-.452.466-1.039.552-1.667.617l-.728.073-1.076.109c-.273.245-.181.904.093 1.026l1.691-.06 3.591-.167c1.005 0 2.013.11 3.02.151l1.691.063c.273-.122.364-.781.091-1.029l-1.14-.125-.62-.063c-1.051-.115-2.361-.302-2.361-1.458 0-.776.361-1.682.632-2.372l1.36-3.235c.68-1.552.408-1.729 2.219-1.729h6.164c2.172 0 1.856 0 2.808 2.206l1.449 3.276c.227.563.633 1.51.633 2.115 0 1.083-1.183 1.156-2.289 1.25l-1.783.135c-.273.245-.183.904.091 1.026l5.523-.211 4.76.151c.521.016.081.034.683.057.273-.122.365-.781.091-1.026zm-11.987-10.182h-5.341c-.185 0-1.672.175-1.672-.263 0-.128.095-.391.141-.518l3.204-7.94c.093-.216.419-1.305.789-1.305.277 0 .651 1.133.744 1.305l3.156 7.414c0 .089.325.784.325.961 0 .479-1.068.346-1.347.346"/></g><path d="M50.507 101.308c28.907 0 68.895 16.277 97.908 16.277 20.707 0 40.909-5.527 52.411-13.663.801-4.779 1.228-9.684 1.228-14.689 0-48.584-39.385-87.971-87.97-87.971s-87.97 39.387-87.97 87.971a88.56 88.56 0 0 0 1.2 14.523c3.171-.585 13.952-2.448 23.193-2.448" fill="#fff"/><path d="M170.915 68.892l3.477 1.443 7.713-5.38zM41.302 62.886l-9.143-3.217.458-1.121 10.297 3.435.045-.025 1.359-.769.542-.341-11.228-4.776.474-1.172 25.061 10.135.827-.344-24.854-12.111.554-1.139 26.338 12.259.364-.185-25.538-14.484.525-1.089 36.878 20.065c.304-.557.936-1.573 1.261-2.12-14.021-13.181-27.552-23.082-27.552-23.082s13.915 9.32 31.088 17.984l1.637-1.951-31.462-27.696.845-.868 25.394 21.643-23.526-23.56.88-.912 26.413 25.527-24.587-27.288.94-.848 22.724 24.333-20.74-26.133.893-.812 26.585 32.353c.687-.593 1.259-1.04 1.977-1.591C78.99 35.58 70.207 21.425 70.207 21.425s9.347 13.759 21.959 28.169l2.349-1.24-.133-.088L75.75 11.083l1.109-.488 15.436 29.576L79.308 9.517l1.157-.515 14.928 33.56L82.819 8.051l1.189-.435L95.962 38.69l-9.44-32 1.133-.417 12.429 39.691-.024.104.031-.01c.825-.279 1.667-.523 2.513-.753-.947-19.064-3.767-35.371-3.767-35.371s3.491 16.163 9.752 34.187l2.635-.259-.028-.04h.108l-.063-.092-3.345-41.454 1.209-.039 3.232 33.207-.555-33.286 1.265-.044 1.267 36.709 1.269-36.709 1.267.044-.557 33.286 3.232-33.205 1.211.037-3.347 41.454-.063.092h.019l-.009.012h.053l2.576.243c6.253-18.005 9.739-34.143 9.739-34.143s-2.811 16.257-3.763 35.287l2.531.747 12.387-39.552 1.135.418-9.444 32 11.956-31.073 1.188.433-12.575 34.512 14.927-33.563 1.16.516-12.988 30.656 15.437-29.577 1.107.487-18.564 37.051.031.012 2.255 1.183c12.557-14.364 21.852-28.044 21.852-28.044s-8.721 14.06-16.741 31.377l2.099 1.68 26.273-32.001.895.812-20.741 26.135 22.724-24.333.94.848-24.588 27.289 26.412-25.528.883.913-23.524 23.559 25.393-21.641.843.865-31.06 27.405 1.579 1.861c17.065-8.628 30.855-17.864 30.855-17.864s-13.4 9.804-27.348 22.891l1.351 2.382 36.356-19.794.527 1.092-29.023 16.459 30.187-14.048.553 1.139-28.116 13.7.54.188 28.608-11.572.477 1.176-26.595 11.309.497.207 17.72-5.907 2.671-1.864.887.676 5.832-1.943.459 1.117-5.045 1.776 7.291 5.563 2.335 1.303C191.365 29.477 156.127.353 114.083.353 71.299.353 35.564 30.51 26.96 70.723l.328-.157 1.068-.482.654-.308 12.293-6.889" fill="#dfa319"/><path d="M26.456 105.658s13.143-2.623 24.114-2.623c28.908 0 68.896 16.276 97.91 16.276 21.285 0 42.043-5.837 53.357-14.353a89.75 89.75 0 0 0 1.347-15.505 89.27 89.27 0 0 0-2.447-20.801l-12.099-6.748-14.189 9.956-9.548-3.719c-3.233 1.633-23.172 14.968-23.172 14.968l-7.655-5.54-8.211-1.628-10.951-7.969-12.56 8.621-14.493 8.136c-.483 0-16.905-13.017-16.905-13.017l-7.566-7.973c-1.289.815-6.437 3.176-6.437 3.176l-.266.071-4.979-1.543-6.049-3.207-18.371 8.33-.328.157c-1.292 6.04-1.979 12.305-1.979 18.729a89.59 89.59 0 0 0 1.475 16.205" fill="#273d76"/></svg>